<svg width="11" height="14" viewBox="0 0 11 14" fill="none" xmlns="http://www.w3.org/2000/svg">
<path fill-rule="evenodd" clip-rule="evenodd" d="M5.5145 13.5008C8.89434 13.5008 10.8113 11.8561 10.8113 9.6041C10.8113 4.67 3.57235 6.18819 3.57235 4.39167C3.57235 3.70849 4.32904 3.20243 5.48928 3.20243C6.97742 3.20243 8.36467 3.86031 9.09612 4.6194L10.3825 2.34212C9.17179 1.38061 7.53232 0.672119 5.48928 0.672119C2.26078 0.672119 0.495188 2.46864 0.495188 4.51819C0.495188 9.32577 7.70888 7.68107 7.70888 9.68001C7.70888 10.4391 7.05309 10.9705 5.66584 10.9705C4.15248 10.9705 2.36167 10.1355 1.45365 9.27517L0.0664062 11.603C1.35276 12.7923 3.3958 13.5008 5.5145 13.5008Z" fill="#333333"/>
</svg>
